<svg width="32" height="32" viewBox="0 0 32 32" fill="none" xmlns="http://www.w3.org/2000/svg">
<g clip-path="url(#clip0_86_4509)">
<path fill-rule="evenodd" clip-rule="evenodd" d="M20 25C20 25.2652 19.8946 25.5196 19.7071 25.7071C19.5196 25.8946 19.2652 26 19 26H3C2.73478 26 2.48043 25.8946 2.29289 25.7071C2.10536 25.5196 2 25.2652 2 25V7C2 6.73478 2.10536 6.48043 2.29289 6.29289C2.48043 6.10536 2.73478 6 3 6H19C19.2652 6 19.5196 6.10536 19.7071 6.29289C19.8946 6.48043 20 6.73478 20 7V11C20 11.2652 20.1054 11.5196 20.2929 11.7071C20.4804 11.8946 20.7348 12 21 12C21.2652 12 21.5196 11.8946 21.7071 11.7071C21.8946 11.5196 22 11.2652 22 11V7C22 6.20435 21.6839 5.44129 21.1213 4.87868C20.5587 4.31607 19.7956 4 19 4H3C2.20435 4 1.44129 4.31607 0.87868 4.87868C0.31607 5.44129 0 6.20435 0 7L0 25C0 25.7956 0.31607 26.5587 0.87868 27.1213C1.44129 27.6839 2.20435 28 3 28H19C19.7956 28 20.5587 27.6839 21.1213 27.1213C21.6839 26.5587 22 25.7956 22 25V21C22 20.7348 21.8946 20.4804 21.7071 20.2929C21.5196 20.1054 21.2652 20 21 20C20.7348 20 20.4804 20.1054 20.2929 20.2929C20.1054 20.4804 20 20.7348 20 21V25Z" fill="black"/>
<path fill-rule="evenodd" clip-rule="evenodd" d="M31.708 16.7083C31.8011 16.6154 31.875 16.505 31.9254 16.3836C31.9758 16.2621 32.0018 16.1318 32.0018 16.0003C32.0018 15.8688 31.9758 15.7385 31.9254 15.617C31.875 15.4955 31.8011 15.3852 31.708 15.2923L25.708 9.29229C25.5202 9.10451 25.2656 8.99902 25 8.99902C24.7344 8.99902 24.4798 9.10451 24.292 9.29229C24.1042 9.48006 23.9987 9.73474 23.9987 10.0003C23.9987 10.2658 24.1042 10.5205 24.292 10.7083L28.586 15.0003H11C10.7348 15.0003 10.4804 15.1056 10.2929 15.2932C10.1054 15.4807 10 15.7351 10 16.0003C10 16.2655 10.1054 16.5199 10.2929 16.7074C10.4804 16.8949 10.7348 17.0003 11 17.0003H28.586L24.292 21.2923C24.1042 21.4801 23.9987 21.7347 23.9987 22.0003C23.9987 22.2658 24.1042 22.5205 24.292 22.7083C24.4798 22.8961 24.7344 23.0016 25 23.0016C25.2656 23.0016 25.5202 22.8961 25.708 22.7083L31.708 16.7083Z" fill="black"/>
</g>
<defs>
<clipPath id="clip0_86_4509">
<rect width="32" height="32" fill="white"/>
</clipPath>
</defs>
</svg>
