<svg width="30" height="29" viewBox="0 0 30 29" fill="none" xmlns="http://www.w3.org/2000/svg">
<path d="M29.0034 2.87981C29.1903 3.06726 29.2952 3.32114 29.2952 3.58581C29.2952 3.85048 29.1903 4.10436 29.0034 4.29181L26.9174 6.37981L22.9174 2.37981L25.0034 0.29181C25.191 0.104339 25.4453 -0.000976562 25.7104 -0.000976562C25.9756 -0.000976562 26.2299 0.104339 26.4174 0.29181L29.0034 2.87781V2.87981ZM25.5034 7.79181L21.5034 3.79181L7.87743 17.4198C7.76736 17.5299 7.68449 17.6641 7.63543 17.8118L6.02543 22.6398C5.99623 22.7278 5.99209 22.8222 6.01346 22.9125C6.03483 23.0027 6.08087 23.0852 6.14645 23.1508C6.21202 23.2164 6.29454 23.2624 6.38477 23.2838C6.47501 23.3052 6.56941 23.301 6.65743 23.2718L11.4854 21.6618C11.633 21.6133 11.7672 21.5312 11.8774 21.4218L25.5034 7.79181Z" fill="black"/>
<path fill-rule="evenodd" clip-rule="evenodd" d="M0 26C0 26.7956 0.316071 27.5587 0.87868 28.1213C1.44129 28.6839 2.20435 29 3 29H25C25.7956 29 26.5587 28.6839 27.1213 28.1213C27.6839 27.5587 28 26.7956 28 26V14C28 13.7348 27.8946 13.4804 27.7071 13.2929C27.5196 13.1054 27.2652 13 27 13C26.7348 13 26.4804 13.1054 26.2929 13.2929C26.1054 13.4804 26 13.7348 26 14V26C26 26.2652 25.8946 26.5196 25.7071 26.7071C25.5196 26.8946 25.2652 27 25 27H3C2.73478 27 2.48043 26.8946 2.29289 26.7071C2.10536 26.5196 2 26.2652 2 26V4C2 3.73478 2.10536 3.48043 2.29289 3.29289C2.48043 3.10536 2.73478 3 3 3H16C16.2652 3 16.5196 2.89464 16.7071 2.70711C16.8946 2.51957 17 2.26522 17 2C17 1.73478 16.8946 1.48043 16.7071 1.29289C16.5196 1.10536 16.2652 1 16 1H3C2.20435 1 1.44129 1.31607 0.87868 1.87868C0.316071 2.44129 0 3.20435 0 4V26Z" fill="black"/>
</svg>
