<svg width="38" height="40" viewBox="0 0 38 40" fill="none" xmlns="http://www.w3.org/2000/svg">
<path d="M19.6669 14.5932C20.1557 14.5932 20.6366 14.6118 21.1136 14.6436V1.30322C21.1136 0.583195 20.5304 0 19.8117 0C19.0903 0 18.5098 0.583195 18.5098 1.30322V14.6197C18.5642 14.6184 18.6174 14.6184 18.6718 14.6157C19 14.6011 19.3321 14.5932 19.6669 14.5932Z" fill="black"/>
<path d="M18.5059 29.1101V38.6963C18.5059 39.4176 19.0877 39.9995 19.8091 39.9995C20.5291 39.9995 21.111 39.4176 21.111 38.6963V29.1247C20.6367 29.0808 20.1532 29.0503 19.6643 29.0503C19.2724 29.0503 18.8898 29.0835 18.5059 29.1101Z" fill="black"/>
<path d="M36.9532 25.5869C35.6035 25.1246 34.4012 23.9157 35.2647 22.0837C36.3488 19.7842 36.5759 15.9369 32.7792 14.6709C28.819 13.3504 26.9432 16.7725 26.271 18.5141C24.4497 17.6932 22.1594 17.2003 19.6672 17.2003C19.371 17.2003 19.0814 17.2069 18.7891 17.2202C18.6576 17.2269 18.5261 17.2295 18.3946 17.2295C17.288 17.2295 16.2106 16.9984 15.2103 16.5879L15.7974 16.2597C16.0645 16.111 16.2438 15.8439 16.2823 15.5397C16.3209 15.2368 16.2132 14.9326 15.9927 14.7227C14.6164 13.4049 14.5434 11.3272 14.5434 11.3272C13.8512 6.00136 10.2817 5.2003 8.51082 5.13653C8.25044 5.1259 7.99671 5.22288 7.80674 5.40488C7.62075 5.58688 7.51447 5.83663 7.51447 6.09834V8.20661C7.01497 8.2996 6.48757 8.43112 6.10763 8.78582C5.05682 9.76755 3.5251 11.3923 2.33613 12.4896C1.05416 13.6746 0.384615 15.3617 1.10198 16.9519C1.47395 17.7769 2.29096 18.275 3.1518 18.275C3.39624 18.275 3.64201 18.2352 3.88379 18.1515L7.85323 16.7818L8.41251 19.0774C8.7526 20.475 8.93327 21.9429 8.93327 23.3803C8.93327 24.6676 9.62806 25.8526 10.7971 26.8396L9.79943 33.6626C9.68252 34.4517 10.1594 35.2275 10.9432 35.4613C11.8067 35.7177 12.7181 35.2275 12.9758 34.3667L15.1691 27.0402C16.54 26.6709 18.0492 26.4437 19.6633 26.4437C21.2561 26.4437 22.7466 26.6643 24.107 27.0256L26.3507 34.3654C26.5819 35.1186 27.3311 35.6168 28.1402 35.5025C29.0356 35.3776 29.656 34.5527 29.5311 33.6599L28.5666 26.8051C29.7118 25.8233 30.3959 24.6463 30.3959 23.375C30.3959 22.4331 30.02 21.5457 29.3664 20.746C30.0226 20.3899 30.7719 20.734 31.3763 23.5251C32.2332 27.4693 35.3338 26.8728 36.9625 26.2524C37.102 26.2006 37.195 26.0625 37.1923 25.915C37.191 25.7662 37.094 25.6334 36.9532 25.5869Z" fill="black"/>
</svg>

