<svg width="32" height="32" viewBox="0 0 32 32" fill="none" xmlns="http://www.w3.org/2000/svg">
<path d="M4 4C4 3.46957 4.21071 2.96086 4.58579 2.58579C4.96086 2.21071 5.46957 2 6 2H15.172C15.7024 2.00011 16.211 2.2109 16.586 2.586L30.586 16.586C30.9609 16.9611 31.1716 17.4697 31.1716 18C31.1716 18.5303 30.9609 19.0389 30.586 19.414L21.414 28.586C21.0389 28.9609 20.5303 29.1716 20 29.1716C19.4697 29.1716 18.9611 28.9609 18.586 28.586L4.586 14.586C4.2109 14.211 4.00011 13.7024 4 13.172V4ZM11 12C11.7956 12 12.5587 11.6839 13.1213 11.1213C13.6839 10.5587 14 9.79565 14 9C14 8.20435 13.6839 7.44129 13.1213 6.87868C12.5587 6.31607 11.7956 6 11 6C10.2044 6 9.44129 6.31607 8.87868 6.87868C8.31607 7.44129 8 8.20435 8 9C8 9.79565 8.31607 10.5587 8.87868 11.1213C9.44129 11.6839 10.2044 12 11 12Z" fill="white"/>
<path d="M2.586 15.586C2.2109 15.211 2.00011 14.7024 2 14.172V4C1.46957 4 0.960859 4.21071 0.585786 4.58579C0.210714 4.96086 0 5.46957 0 6L0 15.172C0.000113275 15.7024 0.210901 16.211 0.586 16.586L14.586 30.586C14.9611 30.9609 15.4697 31.1716 16 31.1716C16.5303 31.1716 17.0389 30.9609 17.414 30.586L17.5 30.5L2.586 15.586Z" fill="white"/>
</svg>
