<svg width="32" height="32" viewBox="0 0 32 32" fill="none" xmlns="http://www.w3.org/2000/svg">
<path d="M31.0034 3.87981C31.1903 4.06726 31.2952 4.32114 31.2952 4.58581C31.2952 4.85048 31.1903 5.10436 31.0034 5.29181L28.9174 7.37981L24.9174 3.37981L27.0034 1.29181C27.191 1.10434 27.4453 0.999023 27.7104 0.999023C27.9756 0.999023 28.2299 1.10434 28.4174 1.29181L31.0034 3.87781V3.87981ZM27.5034 8.79181L23.5034 4.79181L9.87743 18.4198C9.76736 18.5299 9.68449 18.6641 9.63543 18.8118L8.02543 23.6398C7.99623 23.7278 7.99209 23.8222 8.01346 23.9125C8.03483 24.0027 8.08087 24.0852 8.14645 24.1508C8.21202 24.2164 8.29454 24.2624 8.38477 24.2838C8.47501 24.3052 8.56941 24.301 8.65743 24.2718L13.4854 22.6618C13.633 22.6133 13.7672 22.5312 13.8774 22.4218L27.5034 8.79181Z" fill="black"/>
<path fill-rule="evenodd" clip-rule="evenodd" d="M2 27C2 27.7956 2.31607 28.5587 2.87868 29.1213C3.44129 29.6839 4.20435 30 5 30H27C27.7956 30 28.5587 29.6839 29.1213 29.1213C29.6839 28.5587 30 27.7956 30 27V15C30 14.7348 29.8946 14.4804 29.7071 14.2929C29.5196 14.1054 29.2652 14 29 14C28.7348 14 28.4804 14.1054 28.2929 14.2929C28.1054 14.4804 28 14.7348 28 15V27C28 27.2652 27.8946 27.5196 27.7071 27.7071C27.5196 27.8946 27.2652 28 27 28H5C4.73478 28 4.48043 27.8946 4.29289 27.7071C4.10536 27.5196 4 27.2652 4 27V5C4 4.73478 4.10536 4.48043 4.29289 4.29289C4.48043 4.10536 4.73478 4 5 4H18C18.2652 4 18.5196 3.89464 18.7071 3.70711C18.8946 3.51957 19 3.26522 19 3C19 2.73478 18.8946 2.48043 18.7071 2.29289C18.5196 2.10536 18.2652 2 18 2H5C4.20435 2 3.44129 2.31607 2.87868 2.87868C2.31607 3.44129 2 4.20435 2 5V27Z" fill="black"/>
</svg>
