<svg width="31" height="31" viewBox="0 0 31 31" fill="none" xmlns="http://www.w3.org/2000/svg">
<g clip-path="url(#clip0_354_2488)">
<path d="M13.1655 26.3289C13.1655 26.3289 11.2847 26.3289 11.2847 24.4482C11.2847 22.5676 13.1655 16.9257 20.6886 16.9257C28.2118 16.9257 30.0926 22.5676 30.0926 24.4482C30.0926 26.3289 28.2118 26.3289 28.2118 26.3289H13.1655ZM20.6886 15.045C22.1851 15.045 23.6202 14.4506 24.6784 13.3926C25.7365 12.3345 26.331 10.8995 26.331 9.40314C26.331 7.90681 25.7365 6.47177 24.6784 5.41371C23.6202 4.35564 22.1851 3.76123 20.6886 3.76123C19.1922 3.76123 17.757 4.35564 16.6989 5.41371C15.6407 6.47177 15.0463 7.90681 15.0463 9.40314C15.0463 10.8995 15.6407 12.3345 16.6989 13.3926C17.757 14.4506 19.1922 15.045 20.6886 15.045ZM9.81017 26.3289C9.53149 25.7417 9.39244 25.098 9.40392 24.4482C9.40392 21.9 10.6829 19.2765 13.0451 17.4523C11.8662 17.0882 10.6377 16.9106 9.40392 16.9257C1.88078 16.9257 0 22.5676 0 24.4482C0 26.3289 1.88078 26.3289 1.88078 26.3289H9.81017ZM8.46353 15.045C9.71057 15.045 10.9065 14.5497 11.7883 13.668C12.6701 12.7863 13.1655 11.5904 13.1655 10.3435C13.1655 9.09652 12.6701 7.90065 11.7883 7.01893C10.9065 6.13721 9.71057 5.64187 8.46353 5.64187C7.21649 5.64187 6.02053 6.13721 5.13874 7.01893C4.25695 7.90065 3.76157 9.09652 3.76157 10.3435C3.76157 11.5904 4.25695 12.7863 5.13874 13.668C6.02053 14.5497 7.21649 15.045 8.46353 15.045Z" fill="black"/>
</g>
<defs>
<clipPath id="clip0_354_2488">
<rect width="30.0926" height="30.0902" fill="white"/>
</clipPath>
</defs>
</svg>

