<svg width="25" height="25" viewBox="0 0 25 25" fill="none" xmlns="http://www.w3.org/2000/svg">
<path d="M16.7288 5.14641C15.3401 4.84106 13.9225 4.68704 12.5007 4.68704C8.21784 4.68704 4.25534 6.06516 1.03659 8.40423C0.948848 8.4698 0.876363 8.55361 0.82413 8.64989C0.771897 8.74617 0.741157 8.85264 0.734028 8.96194C0.7269 9.07125 0.743552 9.1808 0.782837 9.28305C0.822123 9.3853 0.883107 9.47781 0.96159 9.55423C1.09846 9.68816 1.27824 9.76945 1.46921 9.78374C1.66018 9.79804 1.85006 9.74442 2.00534 9.63235C5.06035 7.42784 8.7333 6.24398 12.5007 6.24954C13.4861 6.24954 14.4507 6.32662 15.3944 6.48079L16.7288 5.14641ZM12.5007 9.37454C9.52409 9.37454 6.75065 10.2495 4.42878 11.7589C4.33589 11.8216 4.25823 11.9043 4.20151 12.001C4.14478 12.0976 4.11044 12.2057 4.101 12.3174C4.09155 12.4291 4.10725 12.5414 4.14694 12.6462C4.18663 12.751 4.2493 12.8456 4.33034 12.923C4.46347 13.0529 4.63681 13.1337 4.82193 13.1522C5.00704 13.1706 5.19293 13.1256 5.34909 13.0245C7.00644 11.9625 8.88027 11.2845 10.8335 11.0402L12.5007 9.37454ZM16.5569 11.5683L17.7835 10.3417C18.7699 10.7188 19.6996 11.1912 20.5725 11.7589C20.6649 11.822 20.7421 11.9048 20.7985 12.0015C20.8549 12.0981 20.889 12.2061 20.8985 12.3175C20.9079 12.429 20.8924 12.5412 20.853 12.6459C20.8137 12.7507 20.7515 12.8453 20.671 12.923C20.5378 13.0529 20.3645 13.1337 20.1794 13.1522C19.9943 13.1706 19.8084 13.1256 19.6522 13.0245C18.688 12.4078 17.6482 11.9184 16.5585 11.5683H16.5569ZM12.5007 15.6245L13.9585 14.1667C15.0541 14.3249 16.1166 14.6611 17.1038 15.162C17.5491 15.3886 17.6132 15.9808 17.26 16.3339L17.2366 16.3574C17.1121 16.4776 16.9531 16.5559 16.7818 16.5811C16.6106 16.6063 16.4358 16.5772 16.2819 16.498C15.1046 15.9223 13.8112 15.6236 12.5007 15.6245ZM20.1647 7.96048L21.3319 6.79329C22.2548 7.26308 23.1324 7.79954 23.9647 8.40266C24.0526 8.46835 24.1252 8.55233 24.1775 8.64882C24.2297 8.7453 24.2604 8.85198 24.2674 8.96149C24.2744 9.07099 24.2575 9.18071 24.2179 9.28305C24.1783 9.38539 24.117 9.47791 24.0382 9.55423C23.9013 9.68816 23.7215 9.76945 23.5305 9.78374C23.3396 9.79804 23.1497 9.74442 22.9944 9.63235C22.1042 8.98979 21.157 8.43015 20.1647 7.96048ZM14.0944 18.4058C14.4663 18.6245 14.4632 19.1308 14.1569 19.437L13.0522 20.5402C12.9057 20.6866 12.707 20.7689 12.4999 20.7689C12.2927 20.7689 12.094 20.6866 11.9475 20.5402L10.8428 19.4355C10.5382 19.1308 10.535 18.6261 10.9053 18.4042C11.3883 18.1183 11.9394 17.9677 12.5007 17.9683C13.085 17.9683 13.6288 18.1277 14.0944 18.4058ZM20.8991 2.92923C21.0545 2.77383 21.2653 2.68652 21.485 2.68652C21.7048 2.68652 21.9156 2.77383 22.071 2.92923C22.2264 3.08463 22.3137 3.29539 22.3137 3.51516C22.3137 3.73493 22.2264 3.9457 22.071 4.1011L5.27409 20.898C5.19714 20.9749 5.10579 21.036 5.00526 21.0776C4.90472 21.1192 4.79697 21.1407 4.68815 21.1407C4.57933 21.1407 4.47158 21.1192 4.37105 21.0776C4.27051 21.036 4.17916 20.9749 4.10222 20.898C4.02527 20.821 3.96423 20.7297 3.92259 20.6291C3.88095 20.5286 3.85951 20.4209 3.85951 20.312C3.85951 20.2032 3.88095 20.0955 3.92259 19.9949C3.96423 19.8944 4.02527 19.803 4.10222 19.7261L20.8991 2.92923Z" fill="#FF0000"/>
</svg>
