<svg width="25" height="25" viewBox="0 0 25 25" fill="none" xmlns="http://www.w3.org/2000/svg">
<path d="M24.0382 9.55471C24.1167 9.47841 24.1778 9.38598 24.2172 9.28379C24.2566 9.18161 24.2734 9.07209 24.2665 8.96279C24.2595 8.85349 24.2289 8.747 24.1768 8.65066C24.1247 8.55431 24.0524 8.47041 23.9647 8.40471C20.6337 5.98237 16.6193 4.68072 12.5007 4.68753C8.21784 4.68753 4.25534 6.06565 1.03659 8.40471C0.948848 8.47029 0.876363 8.5541 0.82413 8.65038C0.771897 8.74666 0.741157 8.85312 0.734028 8.96243C0.7269 9.07173 0.743552 9.18128 0.782837 9.28353C0.822123 9.38578 0.883107 9.4783 0.96159 9.55471C1.09846 9.68865 1.27824 9.76994 1.46921 9.78423C1.66018 9.79853 1.85006 9.74491 2.00534 9.63284C5.06035 7.42833 8.7333 6.24447 12.5007 6.25003C16.4178 6.25003 20.0428 7.50315 22.9944 9.63128C23.3147 9.86253 23.76 9.8344 24.0382 9.55471Z" fill="#59DD00"/>
<path d="M20.6703 12.9235C20.7508 12.8458 20.813 12.7511 20.8523 12.6464C20.8917 12.5417 20.9072 12.4295 20.8978 12.318C20.8884 12.2065 20.8542 12.0986 20.7978 12.0019C20.7415 11.9053 20.6643 11.8225 20.5719 11.7594C18.1691 10.1992 15.3648 9.37079 12.5 9.37502C9.52342 9.37502 6.74998 10.25 4.4281 11.7594C4.33522 11.8221 4.25756 11.9048 4.20083 12.0014C4.14411 12.0981 4.10977 12.2062 4.10032 12.3179C4.09088 12.4295 4.10658 12.5419 4.14627 12.6467C4.18596 12.7515 4.24863 12.8461 4.32967 12.9235C4.4628 13.0534 4.63614 13.1342 4.82125 13.1527C5.00637 13.1711 5.19225 13.1261 5.34842 13.025C7.48283 11.6579 9.96529 10.9333 12.5 10.9375C15.0341 10.9336 17.516 11.6582 19.65 13.025C19.9719 13.2313 20.4 13.1938 20.6703 12.9235ZM17.2594 16.3344C17.6125 15.9813 17.5484 15.3891 17.1031 15.1625C15.6768 14.4385 14.0996 14.0616 12.5 14.0625C10.8437 14.0625 9.2781 14.4594 7.89685 15.1625C7.45154 15.3891 7.38748 15.9813 7.7406 16.3344L7.76404 16.3578C8.01404 16.6078 8.39998 16.6547 8.71873 16.4985C9.89606 15.9228 11.1895 15.624 12.5 15.625C13.8562 15.625 15.1406 15.9391 16.2812 16.5C16.5984 16.6563 16.9844 16.6094 17.2344 16.3578L17.2594 16.3344ZM14.1562 19.4375C14.4625 19.1313 14.4656 18.625 14.0937 18.4063C13.6114 18.12 13.0609 17.9689 12.5 17.9688C11.9391 17.9689 11.3886 18.12 10.9062 18.4063C10.5344 18.625 10.5375 19.1313 10.8437 19.4375L11.9469 20.5406C12.0934 20.6871 12.292 20.7694 12.4992 20.7694C12.7064 20.7694 12.905 20.6871 13.0515 20.5406L14.1562 19.4375Z" fill="#59DD00"/>
</svg>
